<svg width="1000" height="1000" viewBox="0 0 1000 1000" fill="none" xmlns="http://www.w3.org/2000/svg">
<circle cx="500" cy="500" r="500" fill="#F5F5F5"/>
<g filter="url(#filter0_d_656_28)">
<path d="M376.681 548.807V948H469.982V724.921H499.874V948H597.704V496.5C597.704 496.5 724.535 451.842 742.5 371C754.056 319 762.716 296 763.5 238.538C764.284 181.076 676.476 162.99 675.487 238.538C675.487 238.538 668.5 346.5 616.704 378.5C564.909 410.5 500 420 500 420L376.681 445.842C376.681 445.842 261.805 485.243 259.171 612.93C256.536 740.618 259.171 730.744 259.171 730.744C259.171 794.831 338.734 790.489 338.734 730.744V724.921C338.734 724.921 341.354 677.054 341.354 612.93C341.354 548.807 376.681 548.807 376.681 548.807Z" fill="#E86024"/>
</g>
<g filter="url(#filter1_d_656_28)">
<circle cx="499.5" cy="287.5" r="99.5" fill="#E86024"/>
</g>
<path d="M500.5 29C760.902 29 972 240.098 972 500.5C972 760.902 760.902 972 500.5 972C240.098 972 29 760.902 29 500.5C29 240.098 240.098 29 500.5 29ZM500.5 72.001C263.846 72.001 72 263.847 72 500.501C72.0002 737.155 263.846 929.001 500.5 929.001C737.154 929.001 929 737.155 929 500.501C929 263.847 737.154 72.0012 500.5 72.001Z" fill="#E86024"/>
<defs>
<filter id="filter0_d_656_28" x="254" y="156.431" width="569.506" height="823.569" filterUnits="userSpaceOnUse" color-interpolation-filters="sRGB">
<feFlood flood-opacity="0" result="BackgroundImageFix"/>
<feColorMatrix in="SourceAlpha" type="matrix" values="0 0 0 0 0 0 0 0 0 0 0 0 0 0 0 0 0 0 127 0" result="hardAlpha"/>
<feOffset dx="28"/>
<feGaussianBlur stdDeviation="16"/>
<feComposite in2="hardAlpha" operator="out"/>
<feColorMatrix type="matrix" values="0 0 0 0 0.909804 0 0 0 0 0.376471 0 0 0 0 0.141176 0 0 0 0.25 0"/>
<feBlend mode="normal" in2="BackgroundImageFix" result="effect1_dropShadow_656_28"/>
<feBlend mode="normal" in="SourceGraphic" in2="effect1_dropShadow_656_28" result="shape"/>
</filter>
<filter id="filter1_d_656_28" x="389" y="156" width="263" height="263" filterUnits="userSpaceOnUse" color-interpolation-filters="sRGB">
<feFlood flood-opacity="0" result="BackgroundImageFix"/>
<feColorMatrix in="SourceAlpha" type="matrix" values="0 0 0 0 0 0 0 0 0 0 0 0 0 0 0 0 0 0 127 0" result="hardAlpha"/>
<feOffset dx="21"/>
<feGaussianBlur stdDeviation="16"/>
<feComposite in2="hardAlpha" operator="out"/>
<feColorMatrix type="matrix" values="0 0 0 0 0.909804 0 0 0 0 0.376471 0 0 0 0 0.141176 0 0 0 0.25 0"/>
<feBlend mode="normal" in2="BackgroundImageFix" result="effect1_dropShadow_656_28"/>
<feBlend mode="normal" in="SourceGraphic" in2="effect1_dropShadow_656_28" result="shape"/>
</filter>
</defs>
</svg>
